<svg width="272" height="407" viewBox="0 0 272 407" fill="none" xmlns="http://www.w3.org/2000/svg">
<path d="M201.901 357.676L212.913 360.627L204.246 406.497L143.875 390.321L148.676 372.402L112.483 381.91L107.073 380.46C89.7185 375.81 78.2067 368.739 72.5366 359.248C67.1523 349.592 66.7551 336.199 71.3448 319.07L90.7302 246.723C95.3803 229.369 102.307 217.939 111.512 212.433C119.145 208.027 129.227 206.887 141.756 209.015L109.026 250.977L167.689 248.222L129.13 305.709L113.542 294.24L115.018 349.384L168.102 334.38L152.513 322.911L191.339 235L190.765 235.317L191.09 234.781L138.679 233.041L149.914 210.774C150.279 210.868 150.646 210.962 151.014 211.061L154.057 211.876C159.917 213.446 184.164 221.03 188.353 224.326L195.238 198.633L180.169 194.595L213.586 83.4046L271.252 98.8562L201.901 357.676ZM118.615 32.0492L153.553 22.2066L158.962 23.6559C176.317 28.306 187.717 35.3464 193.162 44.7769C198.832 54.2678 199.341 67.6905 194.691 85.0449L175.306 157.393C170.762 174.35 163.816 185.691 154.469 191.418L160.529 80.2626L119.569 107.311L113.459 45.11L88.6543 157.003L129.356 130.921L145.044 195.151C136.951 196.948 126.944 196.25 115.021 193.055L111.978 192.24C106.118 190.67 83.1276 183.422 78.9382 180.125L65.4807 260.874L59.6201 303.997L0.698636 288.209L65.3905 46.7754L58.629 44.9637L74.0577 0.905867L123.416 14.1314L118.615 32.0492Z" fill="white"/>
</svg>
