<svg width="480" height="231" viewBox="0 0 480 231" fill="none" xmlns="http://www.w3.org/2000/svg">
<path fill-rule="evenodd" clip-rule="evenodd" d="M362.75 1.52588e-05H393.9L479.3 231H447.275L411 133H346L319.851 202.305L300.302 168.228L362.75 1.52588e-05ZM353.125 111.05H404.5L378.675 36.75H378.15L353.125 111.05Z" fill="white"/>
<path fill-rule="evenodd" clip-rule="evenodd" d="M156.25 0H236.925C241.606 0 246.123 0.369142 250.477 1.10742C257.732 2.33789 264.531 4.59375 270.875 7.875C281.142 13.0083 289.308 20.5917 295.375 30.625C301.558 40.5417 304.65 52.675 304.65 67.025C304.65 67.9146 304.639 68.7946 304.617 69.665C304.282 82.7217 301.434 93.625 296.075 102.375C290.475 111.708 283.708 118.767 275.775 123.55C275.539 123.689 275.303 123.826 275.067 123.962L275.033 123.981C274.786 124.123 274.54 124.263 274.294 124.4C266.925 128.529 260.069 130.813 253.725 131.25L290.338 195.07L277 231L225.685 137.425L223.45 133.35H186.175V137.425V231H156.25V137.425V111H186.175V111.125H226.425C227.94 111.125 229.426 111.083 230.882 111C242.666 110.326 252.555 106.926 260.55 100.8C269.253 94.1318 273.74 83.5765 274.012 69.1348C274.02 68.6689 274.025 68.199 274.025 67.725C274.025 52.5583 269.533 41.65 260.55 35C251.683 28.35 240.367 25.025 226.6 25.025H186.175V89H156.25V0ZM309.789 228.976L309.025 231L310.95 231L309.789 228.976Z" fill="white"/>
<path fill-rule="evenodd" clip-rule="evenodd" d="M241.585 0.124969C240.05 0.0417347 238.497 0 236.925 0L238.092 0.00782776C239.267 0.0233574 240.431 0.0624046 241.585 0.124969ZM304.642 68.3526L304.65 67.025C304.65 67.8798 304.64 68.7258 304.619 69.563C304.629 69.1616 304.636 68.7581 304.642 68.3526ZM275.775 123.55L275.067 123.962C275.219 123.874 275.371 123.786 275.524 123.697L275.63 123.635L275.775 123.55ZM223.45 133.35L225.685 137.425H186.175V133.35H223.45ZM136.5 231H134.25V203.875H136.5V231ZM156.25 137.425H134.25V111H156.25V137.425ZM134.25 27.125V1.52588e-05H136.5V27.125H134.25ZM186.175 111H209H230.882C229.426 111.083 227.94 111.125 226.425 111.125H186.175V111Z" fill="#1E1E1E"/>
<path d="M0 1.52588e-05H134.25H136.5V27.125H134.25H29.575V111H64H134.25H156.25H186.175H209H230.882H247.5V137.425H225.685H186.175H156.25H134.25H29.575V203.875H134.25H136.5V231H134.25H0V1.52588e-05Z" fill="white"/>
<path fill-rule="evenodd" clip-rule="evenodd" d="M208.175 89H209V89.125H208.175V89Z" fill="#1E1E1E"/>
<path fill-rule="evenodd" clip-rule="evenodd" d="M309.789 228.976L309.025 231H277L290.338 195.07L309.789 228.976Z" fill="white"/>
</svg>
